<?xml version="1.0" encoding="UTF-8"?>
<svg width="24px" height="24px" viewBox="0 0 24 24" version="1.1" xmlns="http://www.w3.org/2000/svg" xmlns:xlink="http://www.w3.org/1999/xlink">
    <title>search-24px</title>
    <g id="Page-1" stroke="none" stroke-width="1" fill="none" fill-rule="evenodd">
        <g id="Homepage" transform="translate(-1135.000000, -174.000000)">
            <g id="Search-&amp;-Filter" transform="translate(0.000000, 91.000000)">
                <g id="Search-box" transform="translate(1123.000000, 71.000000)">
                    <g id="search-24px" transform="translate(12.000000, 12.000000)">
                        <polygon id="Path" points="0 0 24 0 24 24 0 24"></polygon>
                        <path d="M15.1497999,13.6918239 L14.3819325,13.6918239 L14.109777,13.4293882 C15.0623213,12.3213265 15.6357919,10.8827902 15.6357919,9.31789594 C15.6357919,5.82847341 12.8073185,3 9.31789594,3 C5.82847341,3 3,5.82847341 3,9.31789594 C3,12.8073185 5.82847341,15.6357919 9.31789594,15.6357919 C10.8827902,15.6357919 12.3213265,15.0623213 13.4293882,14.109777 L13.6918239,14.3819325 L13.6918239,15.1497999 L18.5517439,20 L20,18.5517439 L15.1497999,13.6918239 Z M9.31789594,13.6918239 C6.8976558,13.6918239 4.94396798,11.7381361 4.94396798,9.31789594 C4.94396798,6.8976558 6.8976558,4.94396798 9.31789594,4.94396798 C11.7381361,4.94396798 13.6918239,6.8976558 13.6918239,9.31789594 C13.6918239,11.7381361 11.7381361,13.6918239 9.31789594,13.6918239 Z" id="Shape" fill="#FFFFFF" fill-rule="nonzero"></path>
                    </g>
                </g>
            </g>
        </g>
    </g>
</svg>